<svg xmlns="http://www.w3.org/2000/svg" xmlns:xlink="http://www.w3.org/1999/xlink" xmlns:lucid="lucid" width="1120" height="2020"><g transform="translate(-80 100)" lucid:page-tab-id="0_0"><path d="M0-1258.83h1870.87v3840.5H0z" fill="#fff"/><path d="M340-74c0-3.3 2.7-6 6-6h688c3.3 0 6 2.7 6 6v1868c0 3.3-2.7 6-6 6H346c-3.3 0-6-2.7-6-6z" stroke="#5e5e5e" stroke-width="3" fill-opacity="0"/><path d="M580 1840h240v60H580z" fill="none"/><use xlink:href="#a" transform="matrix(1,0,0,1,580,1840) translate(18.11111111111113 36.22222222222222)"/><use xlink:href="#b" transform="matrix(1,0,0,1,580,1840) translate(125.18518518518519 36.22222222222222)"/><path d="M860 60c0 33.14-76.1 60-170 60S520 93.14 520 60 596.1 0 690 0s170 26.86 170 60z" stroke="#5e5e5e" stroke-width="3" fill="#fff"/><use xlink:href="#c" transform="matrix(1,0,0,1,520,0) translate(122.27722222222224 66.5111111111111)"/><use xlink:href="#d" transform="matrix(1,0,0,1,520,0) translate(183.44944444444445 66.5111111111111)"/><path d="M860 220c0 33.14-76.1 60-170 60s-170-26.86-170-60 76.1-60 170-60 170 26.86 170 60z" stroke="#5e5e5e" stroke-width="3" fill="#fff"/><use xlink:href="#e" transform="matrix(1,0,0,1,520,160) translate(132.65932098765433 66.5111111111111)"/><use xlink:href="#f" transform="matrix(1,0,0,1,520,160) translate(184.94327160493827 66.5111111111111)"/><path d="M860 380c0 33.14-76.1 60-170 60s-170-26.86-170-60 76.1-60 170-60 170 26.86 170 60z" stroke="#5e5e5e" stroke-width="3" fill="#fff"/><use xlink:href="#g" transform="matrix(1,0,0,1,520,320) translate(67.45376543209879 66.5111111111111)"/><use xlink:href="#h" transform="matrix(1,0,0,1,520,320) translate(132.50993827160494 66.5111111111111)"/><use xlink:href="#i" transform="matrix(1,0,0,1,520,320) translate(196.59512345679013 66.5111111111111)"/><path d="M870 540c0 33.14-76.1 60-170 60s-170-26.86-170-60 76.1-60 170-60 170 26.86 170 60z" stroke="#5e5e5e" stroke-width="3" fill="#fff"/><use xlink:href="#j" transform="matrix(1,0,0,1,530,480.0000000000001) translate(73.13030864197532 47.761111111111106)"/><use xlink:href="#h" transform="matrix(1,0,0,1,530,480.0000000000001) translate(126.8333950617284 47.761111111111106)"/><use xlink:href="#k" transform="matrix(1,0,0,1,530,480.0000000000001) translate(190.91858024691356 47.761111111111106)"/><use xlink:href="#l" transform="matrix(1,0,0,1,530,480.0000000000001) translate(102.89481481481482 80.02777777777777)"/><path d="M860 700c0 33.14-76.1 60-170 60s-170-26.86-170-60 76.1-60 170-60 170 26.86 170 60z" stroke="#5e5e5e" stroke-width="3" fill="#fff"/><use xlink:href="#m" transform="matrix(1,0,0,1,520,640) translate(67.75253086419755 66.5111111111111)"/><use xlink:href="#n" transform="matrix(1,0,0,1,520,640) translate(175.1587037037037 66.5111111111111)"/><path d="M860 860c0 33.14-76.1 60-170 60s-170-26.86-170-60 76.1-60 170-60 170 26.86 170 60z" stroke="#5e5e5e" stroke-width="3" fill="#fff"/><use xlink:href="#o" transform="matrix(1,0,0,1,520,800) translate(49.82660493827164 66.5111111111111)"/><use xlink:href="#p" transform="matrix(1,0,0,1,520,800) translate(142.3691975308642 66.5111111111111)"/><use xlink:href="#q" transform="matrix(1,0,0,1,520,800) translate(196.14697530864197 66.5111111111111)"/><path d="M159.75 739.75c0 10.9-8.84 19.75-19.75 19.75-10.9 0-19.75-8.84-19.75-19.75 0-10.9 8.84-19.75 19.75-19.75 10.9 0 19.75 8.84 19.75 19.75z" stroke="#5e5e5e" stroke-width="3" fill="#fff"/><path d="M140 759.5v49.3c0 3.3 1.44 8.27 3.2 11.07L180 878m-40-63.2L100 878m0-98.75h80" stroke="#5e5e5e" stroke-width="3" fill="none"/><path d="M100 726c0-3.3 2.7-6 6-6h68c3.3 0 6 2.7 6 6v168c0 3.3-2.7 6-6 6h-68c-3.3 0-6-2.7-6-6z" fill="none"/><use xlink:href="#r" transform="matrix(1,0,0,1,20,878) translate(96.60493827160494 17.77777777777778)"/><path d="M1159.75 359.75c0 10.9-8.84 19.75-19.75 19.75-10.9 0-19.75-8.84-19.75-19.75 0-10.9 8.84-19.75 19.75-19.75 10.9 0 19.75 8.84 19.75 19.75z" stroke="#5e5e5e" stroke-width="3" fill="#fff"/><path d="M1140 379.5v49.3c0 3.3 1.44 8.27 3.2 11.07L1180 498m-40-63.2l-40 63.2m0-98.75h80" stroke="#5e5e5e" stroke-width="3" fill="none"/><path d="M1100 346c0-3.3 2.7-6 6-6h68c3.3 0 6 2.7 6 6v168c0 3.3-2.7 6-6 6h-68c-3.3 0-6-2.7-6-6z" fill="none"/><use xlink:href="#s" transform="matrix(1,0,0,1,1020,498) translate(88.58024691358025 17.77777777777778)"/><path d="M860 1500c0 33.14-76.1 60-170 60s-170-26.86-170-60 76.1-60 170-60 170 26.86 170 60z" stroke="#5e5e5e" stroke-width="3" fill="#fff"/><use xlink:href="#g" transform="matrix(1,0,0,1,520,1439.9999999999998) translate(71.82320987654323 66.5111111111111)"/><use xlink:href="#t" transform="matrix(1,0,0,1,520,1439.9999999999998) translate(136.8793827160494 66.5111111111111)"/><path d="M860 1180c0 33.14-76.1 60-170 60s-170-26.86-170-60 76.1-60 170-60 170 26.86 170 60z" stroke="#5e5e5e" stroke-width="3" fill="#fff"/><use xlink:href="#u" transform="matrix(1,0,0,1,520,1120) translate(84.25932098765433 66.5111111111111)"/><use xlink:href="#v" transform="matrix(1,0,0,1,520,1120) translate(157.38216049382714 66.5111111111111)"/><path d="M860 1340c0 33.14-76.1 60-170 60s-170-26.86-170-60 76.1-60 170-60 170 26.86 170 60z" stroke="#5e5e5e" stroke-width="3" fill="#fff"/><use xlink:href="#g" transform="matrix(1,0,0,1,520,1280) translate(46.46549382716053 66.5111111111111)"/><use xlink:href="#w" transform="matrix(1,0,0,1,520,1280) translate(111.52166666666669 66.5111111111111)"/><use xlink:href="#v" transform="matrix(1,0,0,1,520,1280) translate(195.17598765432098 66.5111111111111)"/><path d="M870 1660c0 33.14-80.6 60-180 60s-180-26.86-180-60 80.6-60 180-60 180 26.86 180 60z" stroke="#5e5e5e" stroke-width="3" fill="#fff"/><use xlink:href="#o" transform="matrix(1,0,0,1,510,1600.0000000000002) translate(110.5793827160494 32.761111111111106)"/><use xlink:href="#x" transform="matrix(1,0,0,1,510,1600.0000000000002) translate(203.121975308642 32.761111111111106)"/><use xlink:href="#y" transform="matrix(1,0,0,1,510,1600.0000000000002) translate(46.45685185185188 65.02777777777777)"/><use xlink:href="#z" transform="matrix(1,0,0,1,510,1600.0000000000002) translate(155.43154320987657 65.02777777777777)"/><use xlink:href="#A" transform="matrix(1,0,0,1,510,1600.0000000000002) translate(237.36796296296296 65.02777777777777)"/><use xlink:href="#v" transform="matrix(1,0,0,1,510,1600.0000000000002) translate(130.82074074074075 97.29444444444442)"/><path d="M860 1020c0 33.14-76.1 60-170 60s-170-26.86-170-60 76.1-60 170-60 170 26.86 170 60z" stroke="#5e5e5e" stroke-width="3" fill="#fff"/><use xlink:href="#B" transform="matrix(1,0,0,1,520,960) translate(62.48679012345683 66.5111111111111)"/><use xlink:href="#C" transform="matrix(1,0,0,1,520,960) translate(166.98000000000002 66.5111111111111)"/><path d="M206.3 774.77l-7.86-30.4-7.13-33.26-5.95-34.84-4.6-36.02-3.16-36.66-1.62-36.76-.07-36.3 1.42-35.38 2.78-34 4.02-32.34 5.1-30.47 5.98-28.5 6.75-26.5 7.35-24.54 7.84-22.67 8.22-20.88 8.5-19.23 8.75-17.7 8.92-16.3 9.04-15 9.14-13.8 9.23-12.76 9.3-11.78 9.34-10.88 9.42-10.06 9.46-9.32 9.54-8.62 9.62-8 9.7-7.4 9.82-6.84 9.93-6.33 10.08-5.84 10.23-5.4 10.42-4.9 10.64-4.5 10.87-4.07 11.16-3.65 11.46-3.22 11.82-2.8 12.2-2.35 12.66-1.88 13.16-1.4 13.72-.9 14.02-.3M206.3 774.75l.25 1" stroke="#5e5e5e" stroke-width="2" fill="none"/><path d="M518.52 59.03l-.02.96v.5l.03.5h-1.05v-2h1.04" fill="#5e5e5e"/><path d="M205 775.14l-4.76-18.4-4.3-20.08-3.55-20.74-2.75-21.34-1.87-21.85-.97-22.24-.03-22.54.9-22.66 1.86-22.64 2.8-22.47 3.7-22.16 4.56-21.68 5.36-21.07 6.1-20.37 6.77-19.55 7.35-18.67 7.86-17.74 8.3-16.8 8.66-15.84 8.98-14.9 9.24-13.96 9.44-13.06 9.63-12.18 9.75-11.36 9.88-10.57 10-9.82 10.06-9.1 10.14-8.44 10.23-7.8 10.3-7.2 10.4-6.6 10.47-6.1 10.57-5.54 10.7-5.05 10.8-4.57 10.94-4.1 11.1-3.62 11.3-3.18 11.47-2.7 11.73-2.27 11.97-1.78 12.27-1.3 12.6-.83 12.53-.3M205 775.1l.25 1" stroke="#5e5e5e" stroke-width="2" fill="none"/><path d="M518.52 219.03l-.02.96v.5l.03.5h-1.05v-2h1.04" fill="#5e5e5e"/><path d="M181 779.27l3.44-.07 4.3-.27 4.17-.44 4.1-.6 4-.78 3.97-.93 3.9-1.1 3.9-1.26 3.88-1.45 3.88-1.64 3.9-1.84 3.95-2.06 4-2.3 4.08-2.6 4.18-2.9 4.3-3.27 4.44-3.7 4.63-4.16 4.86-4.75 5.12-5.47 5.45-6.32 5.88-7.4 6.42-8.85 7.14-10.76 8.16-13.52 9.78-17.83 12.96-26.2 71.94-160.6 9.78-17.84 8.16-13.5 7.14-10.75 6.4-8.85 5.9-7.42 5.44-6.32 5.12-5.46 4.85-4.75 4.62-4.17 4.45-3.68 4.3-3.26 4.17-2.9 4.08-2.6 4-2.3 3.94-2.07 3.9-1.84 3.9-1.63 3.87-1.44 3.9-1.27 3.9-1.1 3.96-.93 4-.76 4.1-.6 4.17-.44 4.3-.27 3.43-.08" stroke="#5e5e5e" stroke-width="2" fill="none"/><path d="M181.05 780.27l-1.05.02v-2l1-.03M518.52 379.03l-.02.96v.5l.03.5h-1.06v-2h1.05" fill="#5e5e5e"/><path d="M527.5 540.02l-6.75.14-7.33.46-6.97.73-6.7 1-6.42 1.22-6.23 1.46-6.06 1.7-5.94 1.92-5.83 2.17-5.78 2.43-5.76 2.7-5.76 3.02-5.8 3.35-5.9 3.75-6.06 4.2-6.26 4.76-6.56 5.43-6.98 6.3-7.6 7.44-8.58 9.15-10.3 11.97L373.18 634l-52.63 69.97-10.3 11.97-8.6 9.15-7.6 7.44-6.97 6.3-6.56 5.42-6.26 4.76-6.05 4.2-5.9 3.75-5.8 3.35-5.77 3.02-5.75 2.7-5.77 2.43-5.83 2.17-5.94 1.93-6.06 1.7-6.23 1.45-6.43 1.23-6.7 1-6.96.72-7.33.46-6.75.14" stroke="#5e5e5e" stroke-width="2" fill="none"/><path d="M528.52 539.03l-.02.96v.5l.03.5-1.04.02-.05-2 1.07-.02M181.03 780.3H180v-2h1.03" fill="#5e5e5e"/><path d="M517.5 700.02l-19.88.4-17.9 1.12-15.74 1.65-14.15 2.08-13.02 2.48-12.3 2.88-11.98 3.35-12.18 3.95-13.3 4.95-17.37 7.34-58.22 26.15-13.3 4.94L286 765.3l-12 3.35-12.3 2.88-13 2.5-14.16 2.07-15.74 1.65-17.9 1.12-19.88.4" stroke="#5e5e5e" stroke-width="2" fill="none"/><path d="M518.52 699.03l-.02.96v.5l.03.5-1.04.02-.05-2 1.07-.02M181.03 780.3H180v-2h1.03" fill="#5e5e5e"/><path d="M517.5 859.98l-19.54-.4-17.66-1.1-15.54-1.63-14-2.06-12.87-2.47-12.17-2.84-11.8-3.3-11.96-3.9-12.87-4.8-16.07-6.77-63.63-28.95-12.87-4.8-11.95-3.88-11.8-3.3-12.17-2.84-12.87-2.46-14-2.06-15.53-1.63-17.66-1.1-19.54-.4" stroke="#5e5e5e" stroke-width="2" fill="none"/><path d="M518.52 859v.03l-.02.96v.5l.03.5-1.08-.02.04-2M181.03 778.3v2H180v-2" fill="#5e5e5e"/><path d="M517.5 1179.98l-3.42-.07-4.28-.26-4.17-.44-4.08-.6-4-.76-3.94-.93-3.9-1.08-3.87-1.26-3.87-1.44-3.87-1.63-3.9-1.84-3.94-2.06-4-2.3-4.06-2.6-4.17-2.88-4.28-3.26-4.44-3.67-4.6-4.17-4.85-4.74-5.1-5.46-5.45-6.3-5.86-7.4-6.4-8.83-7.1-10.7-8.14-13.46-9.72-17.73-12.83-25.93-72.83-163-9.72-17.72-8.13-13.45-7.1-10.72-6.4-8.82-5.87-7.4-5.44-6.3-5.1-5.45-4.85-4.74-4.6-4.16-4.45-3.67-4.28-3.25-4.17-2.9-4.07-2.58-4-2.3-3.92-2.07-3.9-1.83-3.86-1.63-3.87-1.44-3.88-1.26-3.9-1.1-3.95-.9-4-.78-4.08-.6-4.17-.45-4.28-.27-3.42-.07" stroke="#5e5e5e" stroke-width="2" fill="none"/><path d="M518.52 1179v.03l-.02.96v.5l.03.5-1.08-.02.04-2M181.03 778.3v2H180v-2" fill="#5e5e5e"/><path d="M518.9 1340h-.4" stroke="#5e5e5e" stroke-width="2" fill="none"/><path d="M518.52 1339.03l-.02.96v.5l.03.5h-1.06v-2h1.05" fill="#5e5e5e"/><path d="M518.52 1339.03l-.02.96v.5l.03.5h-.66v-2h.65" fill="#5e5e5e"/><path d="M517.5 1339.98l-2.18-.05-3.1-.2-3.05-.3-3-.46-3-.57-2.95-.7-2.96-.82-2.96-.96-2.97-1.1-3-1.26-3.03-1.43-3.1-1.62-3.15-1.8-3.23-2.06-3.33-2.32-3.45-2.6-3.57-2.97-3.74-3.37-3.92-3.84-4.15-4.42-4.4-5.1-4.73-5.98-5.1-7.03-5.57-8.38-6.15-10.18-6.9-12.58-7.94-16-9.4-21.22-11.9-30.16-17.72-51.26-66.94-210.4-11.9-30.17-9.4-21.2-7.93-16-6.92-12.6-6.15-10.18-5.57-8.4-5.1-7.02-4.73-5.97-4.4-5.1-4.15-4.43-3.92-3.84-3.74-3.36-3.57-2.96-3.44-2.6-3.32-2.33-3.23-2.05-3.16-1.82-3.1-1.6-3.03-1.44-3-1.27-2.98-1.1-2.96-.96-2.96-.82-2.96-.7-2.98-.56-3-.45-3.06-.32-3.1-.2-2.18-.04" stroke="#5e5e5e" stroke-width="2" fill="none"/><path d="M518.52 1339v.03l-.02.96v.5l.03.5-1.08-.02.04-2M181.03 778.3v2H180v-2" fill="#5e5e5e"/><path d="M517.5 1499.98l-13.17-.27-12.9-.8-11.84-1.24-10.95-1.62-10.17-1.93-9.5-2.22-8.92-2.5-8.43-2.73-8-2.97-7.6-3.2-7.28-3.42-7-3.65-6.73-3.9-6.53-4.13-6.35-4.4-6.18-4.7-6.05-5-5.93-5.35-5.86-5.72-5.77-6.15-5.73-6.64-5.7-7.17-5.67-7.82-5.68-8.55-5.7-9.42-5.76-10.46-5.8-11.72-5.9-13.25-6-15.2-6.16-17.7-6.36-21.08-6.62-25.9-7.08-33.47-8-47.78-12.95-106.64-20.92-181.64-9.53-56.8-8.83-41.72-8.6-33.5-.1-.44" stroke="#5e5e5e" stroke-width="2" fill="none"/><path d="M518.52 1499v.03l-.02.96v.5l.03.5-1.1-.02.06-2" fill="#5e5e5e"/><path d="M205.3 777.17l-.28-1M507.5 1659.98l-15.54-.32-15.23-.96-14.13-1.48-13.17-1.94-12.34-2.35-11.63-2.73-11-3.06-10.42-3.4-9.94-3.7-9.5-4-9.15-4.3-8.8-4.6-8.53-4.92-8.27-5.24-8.05-5.6-7.85-5.96-7.7-6.36-7.54-6.8-7.4-7.27-7.34-7.8-7.24-8.4-7.18-9.06-7.12-9.82-7.1-10.67-7.05-11.65-7.03-12.8-7-14.15-7-15.72-6.97-17.6-6.92-19.9-6.84-22.7-6.7-26.2-6.52-30.74-6.18-36.72-5.65-45-4.77-57.47-3.2-79 .38-136.96 6.57-231.93" stroke="#5e5e5e" stroke-width="2" fill="none"/><path d="M508.52 1659v.08l-.02.9v.5l.03.52-1.1-.02.05-2" fill="#5e5e5e"/><path d="M200.43 780.73l.03-1.02M862.5 1019.98l1.03-.02 2-.13 1.97-.2 1.95-.3 1.94-.36 1.93-.46 1.95-.53 1.96-.64 1.98-.74 2-.85 2.04-.96 2.08-1.1 2.13-1.23 2.2-1.4 2.28-1.58 2.36-1.8 2.47-2.04 2.58-2.33 2.72-2.67 2.9-3.07 3.07-3.58 3.3-4.18 3.58-4.92 3.9-5.88 4.3-7.1 4.8-8.74 5.4-10.94 6.26-14.08 7.4-18.78 9.2-26.52 12.54-41.8 75.26-293.96 9.2-26.52 7.4-18.78 6.26-14.08 5.42-10.94 4.8-8.73 4.3-7.1 3.9-5.9 3.56-4.9 3.3-4.2 3.1-3.56 2.87-3.06 2.7-2.67 2.6-2.33 2.46-2.04 2.36-1.8 2.27-1.57 2.2-1.4 2.13-1.23 2.08-1.1 2.05-.95 2-.84 1.98-.73 1.95-.64 1.95-.54 1.94-.47 1.95-.37 1.95-.28 1.97-.2 2-.14 1.03-.02" stroke="#5e5e5e" stroke-width="2" fill="none"/><path d="M862.55 1020.98l-1.07.02v-.03l.02-.96v-.5l-.03-.5 1.04-.02" fill="#5e5e5e"/><path d="M1137.64 430h4.03" stroke="#5e5e5e" stroke-width="2" fill="none"/><defs><path fill="#333" d="M185-189c-5-48-123-54-124 2 14 75 158 14 163 119 3 78-121 87-175 55-17-10-28-26-33-46l33-7c5 56 141 63 141-1 0-78-155-14-162-118-5-82 145-84 179-34 5 7 8 16 11 25" id="D"/><path fill="#333" d="M100-194c63 0 86 42 84 106H49c0 40 14 67 53 68 26 1 43-12 49-29l28 8c-11 28-37 45-77 45C44 4 14-33 15-96c1-61 26-98 85-98zm52 81c6-60-76-77-97-28-3 7-6 17-6 28h103" id="E"/><path fill="#333" d="M141-36C126-15 110 5 73 4 37 3 15-17 15-53c-1-64 63-63 125-63 3-35-9-54-41-54-24 1-41 7-42 31l-33-3c5-37 33-52 76-52 45 0 72 20 72 64v82c-1 20 7 32 28 27v20c-31 9-61-2-59-35zM48-53c0 20 12 33 32 33 41-3 63-29 60-74-43 2-92-5-92 41" id="F"/><path fill="#333" d="M114-163C36-179 61-72 57 0H25l-1-190h30c1 12-1 29 2 39 6-27 23-49 58-41v29" id="G"/><path fill="#333" d="M96-169c-40 0-48 33-48 73s9 75 48 75c24 0 41-14 43-38l32 2c-6 37-31 61-74 61-59 0-76-41-82-99-10-93 101-131 147-64 4 7 5 14 7 22l-32 3c-4-21-16-35-41-35" id="H"/><path fill="#333" d="M106-169C34-169 62-67 57 0H25v-261h32l-1 103c12-21 28-36 61-36 89 0 53 116 60 194h-32v-121c2-32-8-49-39-48" id="I"/><g id="a"><use transform="matrix(0.08641975308641973,0,0,0.08641975308641973,0,0)" xlink:href="#D"/><use transform="matrix(0.08641975308641973,0,0,0.08641975308641973,20.740740740740737,0)" xlink:href="#E"/><use transform="matrix(0.08641975308641973,0,0,0.08641975308641973,38.02469135802468,0)" xlink:href="#F"/><use transform="matrix(0.08641975308641973,0,0,0.08641975308641973,55.30864197530863,0)" xlink:href="#G"/><use transform="matrix(0.08641975308641973,0,0,0.08641975308641973,65.59259259259258,0)" xlink:href="#H"/><use transform="matrix(0.08641975308641973,0,0,0.08641975308641973,81.14814814814814,0)" xlink:href="#I"/></g><path fill="#333" d="M30 0v-248h187v28H63v79h144v27H63v87h162V0H30" id="J"/><path fill="#333" d="M117-194c89-4 53 116 60 194h-32v-121c0-31-8-49-39-48C34-167 62-67 57 0H25l-1-190h30c1 10-1 24 2 32 11-22 29-35 61-36" id="K"/><path fill="#333" d="M177-190C167-65 218 103 67 71c-23-6-38-20-44-43l32-5c15 47 100 32 89-28v-30C133-14 115 1 83 1 29 1 15-40 15-95c0-56 16-97 71-98 29-1 48 16 59 35 1-10 0-23 2-32h30zM94-22c36 0 50-32 50-73 0-42-14-75-50-75-39 0-46 34-46 75s6 73 46 73" id="L"/><path fill="#333" d="M24-231v-30h32v30H24zM24 0v-190h32V0H24" id="M"/><g id="b"><use transform="matrix(0.08641975308641973,0,0,0.08641975308641973,0,0)" xlink:href="#J"/><use transform="matrix(0.08641975308641973,0,0,0.08641975308641973,20.740740740740737,0)" xlink:href="#K"/><use transform="matrix(0.08641975308641973,0,0,0.08641975308641973,38.02469135802468,0)" xlink:href="#L"/><use transform="matrix(0.08641975308641973,0,0,0.08641975308641973,55.30864197530863,0)" xlink:href="#M"/><use transform="matrix(0.08641975308641973,0,0,0.08641975308641973,62.13580246913579,0)" xlink:href="#K"/><use transform="matrix(0.08641975308641973,0,0,0.08641975308641973,79.41975308641973,0)" xlink:href="#E"/></g><path d="M185-189c-5-48-123-54-124 2 14 75 158 14 163 119 3 78-121 87-175 55-17-10-28-26-33-46l33-7c5 56 141 63 141-1 0-78-155-14-162-118-5-82 145-84 179-34 5 7 8 16 11 25" id="N"/><path d="M24-231v-30h32v30H24zM24 0v-190h32V0H24" id="O"/><path d="M177-190C167-65 218 103 67 71c-23-6-38-20-44-43l32-5c15 47 100 32 89-28v-30C133-14 115 1 83 1 29 1 15-40 15-95c0-56 16-97 71-98 29-1 48 16 59 35 1-10 0-23 2-32h30zM94-22c36 0 50-32 50-73 0-42-14-75-50-75-39 0-46 34-46 75s6 73 46 73" id="P"/><path d="M117-194c89-4 53 116 60 194h-32v-121c0-31-8-49-39-48C34-167 62-67 57 0H25l-1-190h30c1 10-1 24 2 32 11-22 29-35 61-36" id="Q"/><g id="c"><use transform="matrix(0.07469135802469135,0,0,0.07469135802469135,0,0)" xlink:href="#N"/><use transform="matrix(0.07469135802469135,0,0,0.07469135802469135,17.925925925925924,0)" xlink:href="#O"/><use transform="matrix(0.07469135802469135,0,0,0.07469135802469135,23.82654320987654,0)" xlink:href="#P"/><use transform="matrix(0.07469135802469135,0,0,0.07469135802469135,38.764814814814805,0)" xlink:href="#Q"/></g><path d="M232-93c-1 65-40 97-104 97C67 4 28-28 28-90v-158h33c8 89-33 224 67 224 102 0 64-133 71-224h33v155" id="R"/><path d="M115-194c55 1 70 41 70 98S169 2 115 4C84 4 66-9 55-30l1 105H24l-1-265h31l2 30c10-21 28-34 59-34zm-8 174c40 0 45-34 45-75s-6-73-45-74c-42 0-51 32-51 76 0 43 10 73 51 73" id="S"/><g id="d"><use transform="matrix(0.07469135802469135,0,0,0.07469135802469135,0,0)" xlink:href="#R"/><use transform="matrix(0.07469135802469135,0,0,0.07469135802469135,19.34506172839506,0)" xlink:href="#S"/></g><path d="M30 0v-248h33v221h125V0H30" id="T"/><path d="M100-194c62-1 85 37 85 99 1 63-27 99-86 99S16-35 15-95c0-66 28-99 85-99zM99-20c44 1 53-31 53-75 0-43-8-75-51-75s-53 32-53 75 10 74 51 75" id="U"/><g id="e"><use transform="matrix(0.07469135802469135,0,0,0.07469135802469135,0,0)" xlink:href="#T"/><use transform="matrix(0.07469135802469135,0,0,0.07469135802469135,14.938271604938269,0)" xlink:href="#U"/><use transform="matrix(0.07469135802469135,0,0,0.07469135802469135,29.876543209876537,0)" xlink:href="#P"/></g><path d="M33 0v-248h34V0H33" id="V"/><g id="f"><use transform="matrix(0.07469135802469135,0,0,0.07469135802469135,0,0)" xlink:href="#V"/><use transform="matrix(0.07469135802469135,0,0,0.07469135802469135,7.469135802469134,0)" xlink:href="#Q"/></g><path d="M137 0h-34L2-248h35l83 218 83-218h36" id="W"/><path d="M100-194c63 0 86 42 84 106H49c0 40 14 67 53 68 26 1 43-12 49-29l28 8c-11 28-37 45-77 45C44 4 14-33 15-96c1-61 26-98 85-98zm52 81c6-60-76-77-97-28-3 7-6 17-6 28h103" id="X"/><path d="M206 0h-36l-40-164L89 0H53L-1-190h32L70-26l43-164h34l41 164 42-164h31" id="Y"/><g id="g"><use transform="matrix(0.07469135802469135,0,0,0.07469135802469135,0,0)" xlink:href="#W"/><use transform="matrix(0.07469135802469135,0,0,0.07469135802469135,17.403086419753084,0)" xlink:href="#O"/><use transform="matrix(0.07469135802469135,0,0,0.07469135802469135,23.3037037037037,0)" xlink:href="#X"/><use transform="matrix(0.07469135802469135,0,0,0.07469135802469135,38.24197530864197,0)" xlink:href="#Y"/></g><path d="M135-143c-3-34-86-38-87 0 15 53 115 12 119 90S17 21 10-45l28-5c4 36 97 45 98 0-10-56-113-15-118-90-4-57 82-63 122-42 12 7 21 19 24 35" id="Z"/><path d="M114-163C36-179 61-72 57 0H25l-1-190h30c1 12-1 29 2 39 6-27 23-49 58-41v29" id="aa"/><g id="h"><use transform="matrix(0.07469135802469135,0,0,0.07469135802469135,0,0)" xlink:href="#R"/><use transform="matrix(0.07469135802469135,0,0,0.07469135802469135,19.34506172839506,0)" xlink:href="#Z"/><use transform="matrix(0.07469135802469135,0,0,0.07469135802469135,32.7895061728395,0)" xlink:href="#X"/><use transform="matrix(0.07469135802469135,0,0,0.07469135802469135,47.72777777777778,0)" xlink:href="#aa"/></g><path d="M30-248c87 1 191-15 191 75 0 78-77 80-158 76V0H30v-248zm33 125c57 0 124 11 124-50 0-59-68-47-124-48v98" id="ab"/><path d="M101-234c-31-9-42 10-38 44h38v23H63V0H32v-167H5v-23h27c-7-52 17-82 69-68v24" id="ac"/><path d="M24 0v-261h32V0H24" id="ad"/><g id="i"><use transform="matrix(0.07469135802469135,0,0,0.07469135802469135,0,0)" xlink:href="#ab"/><use transform="matrix(0.07469135802469135,0,0,0.07469135802469135,17.925925925925924,0)" xlink:href="#aa"/><use transform="matrix(0.07469135802469135,0,0,0.07469135802469135,26.81419753086419,0)" xlink:href="#U"/><use transform="matrix(0.07469135802469135,0,0,0.07469135802469135,41.75246913580246,0)" xlink:href="#ac"/><use transform="matrix(0.07469135802469135,0,0,0.07469135802469135,49.22160493827159,0)" xlink:href="#O"/><use transform="matrix(0.07469135802469135,0,0,0.07469135802469135,55.122222222222206,0)" xlink:href="#ad"/><use transform="matrix(0.07469135802469135,0,0,0.07469135802469135,61.02283950617282,0)" xlink:href="#X"/></g><path d="M30 0v-248h187v28H63v79h144v27H63v87h162V0H30" id="ae"/><path d="M85-194c31 0 48 13 60 33l-1-100h32l1 261h-30c-2-10 0-23-3-31C134-8 116 4 85 4 32 4 16-35 15-94c0-66 23-100 70-100zm9 24c-40 0-46 34-46 75 0 40 6 74 45 74 42 0 51-32 51-76 0-42-9-74-50-73" id="af"/><path d="M59-47c-2 24 18 29 38 22v24C64 9 27 4 27-40v-127H5v-23h24l9-43h21v43h35v23H59v120" id="ag"/><g id="j"><use transform="matrix(0.07469135802469135,0,0,0.07469135802469135,0,0)" xlink:href="#ae"/><use transform="matrix(0.07469135802469135,0,0,0.07469135802469135,17.925925925925924,0)" xlink:href="#af"/><use transform="matrix(0.07469135802469135,0,0,0.07469135802469135,32.86419753086419,0)" xlink:href="#O"/><use transform="matrix(0.07469135802469135,0,0,0.07469135802469135,38.764814814814805,0)" xlink:href="#ag"/></g><g id="k"><use transform="matrix(0.07469135802469135,0,0,0.07469135802469135,0,0)" xlink:href="#ab"/><use transform="matrix(0.07469135802469135,0,0,0.07469135802469135,17.925925925925924,0)" xlink:href="#aa"/><use transform="matrix(0.07469135802469135,0,0,0.07469135802469135,26.81419753086419,0)" xlink:href="#U"/><use transform="matrix(0.07469135802469135,0,0,0.07469135802469135,41.75246913580246,0)" xlink:href="#ac"/><use transform="matrix(0.07469135802469135,0,0,0.07469135802469135,49.22160493827159,0)" xlink:href="#O"/><use transform="matrix(0.07469135802469135,0,0,0.07469135802469135,55.122222222222206,0)" xlink:href="#ad"/><use transform="matrix(0.07469135802469135,0,0,0.07469135802469135,61.02283950617282,0)" xlink:href="#X"/></g><path d="M210-169c-67 3-38 105-44 169h-31v-121c0-29-5-50-35-48C34-165 62-65 56 0H25l-1-190h30c1 10-1 24 2 32 10-44 99-50 107 0 11-21 27-35 58-36 85-2 47 119 55 194h-31v-121c0-29-5-49-35-48" id="ah"/><path d="M141-36C126-15 110 5 73 4 37 3 15-17 15-53c-1-64 63-63 125-63 3-35-9-54-41-54-24 1-41 7-42 31l-33-3c5-37 33-52 76-52 45 0 72 20 72 64v82c-1 20 7 32 28 27v20c-31 9-61-2-59-35zM48-53c0 20 12 33 32 33 41-3 63-29 60-74-43 2-92-5-92 41" id="ai"/><g id="l"><use transform="matrix(0.07469135802469135,0,0,0.07469135802469135,0,0)" xlink:href="#V"/><use transform="matrix(0.07469135802469135,0,0,0.07469135802469135,7.469135802469134,0)" xlink:href="#Q"/><use transform="matrix(0.07469135802469135,0,0,0.07469135802469135,22.407407407407405,0)" xlink:href="#ac"/><use transform="matrix(0.07469135802469135,0,0,0.07469135802469135,29.876543209876537,0)" xlink:href="#U"/><use transform="matrix(0.07469135802469135,0,0,0.07469135802469135,44.81481481481481,0)" xlink:href="#aa"/><use transform="matrix(0.07469135802469135,0,0,0.07469135802469135,53.70308641975308,0)" xlink:href="#ah"/><use transform="matrix(0.07469135802469135,0,0,0.07469135802469135,76.03580246913579,0)" xlink:href="#ai"/><use transform="matrix(0.07469135802469135,0,0,0.07469135802469135,90.97407407407405,0)" xlink:href="#ag"/><use transform="matrix(0.07469135802469135,0,0,0.07469135802469135,98.4432098765432,0)" xlink:href="#O"/><use transform="matrix(0.07469135802469135,0,0,0.07469135802469135,104.34382716049382,0)" xlink:href="#U"/><use transform="matrix(0.07469135802469135,0,0,0.07469135802469135,119.28209876543208,0)" xlink:href="#Q"/></g><path d="M233-177c-1 41-23 64-60 70L243 0h-38l-65-103H63V0H30v-248c88 3 205-21 203 71zM63-129c60-2 137 13 137-47 0-61-80-42-137-45v92" id="aj"/><path d="M96-169c-40 0-48 33-48 73s9 75 48 75c24 0 41-14 43-38l32 2c-6 37-31 61-74 61-59 0-76-41-82-99-10-93 101-131 147-64 4 7 5 14 7 22l-32 3c-4-21-16-35-41-35" id="ak"/><path d="M108 0H70L1-190h34L89-25l56-165h34" id="al"/><g id="m"><use transform="matrix(0.07469135802469135,0,0,0.07469135802469135,0,0)" xlink:href="#aj"/><use transform="matrix(0.07469135802469135,0,0,0.07469135802469135,19.34506172839506,0)" xlink:href="#X"/><use transform="matrix(0.07469135802469135,0,0,0.07469135802469135,34.28333333333333,0)" xlink:href="#ak"/><use transform="matrix(0.07469135802469135,0,0,0.07469135802469135,47.72777777777778,0)" xlink:href="#U"/><use transform="matrix(0.07469135802469135,0,0,0.07469135802469135,62.66604938271604,0)" xlink:href="#al"/><use transform="matrix(0.07469135802469135,0,0,0.07469135802469135,76.11049382716048,0)" xlink:href="#X"/><use transform="matrix(0.07469135802469135,0,0,0.07469135802469135,91.04876543209875,0)" xlink:href="#aa"/></g><path d="M205 0l-28-72H64L36 0H1l101-248h38L239 0h-34zm-38-99l-47-123c-12 45-31 82-46 123h93" id="am"/><path d="M84 4C-5 8 30-112 23-190h32v120c0 31 7 50 39 49 72-2 45-101 50-169h31l1 190h-30c-1-10 1-25-2-33-11 22-28 36-60 37" id="an"/><g id="n"><use transform="matrix(0.07469135802469135,0,0,0.07469135802469135,0,0)" xlink:href="#am"/><use transform="matrix(0.07469135802469135,0,0,0.07469135802469135,17.925925925925924,0)" xlink:href="#ak"/><use transform="matrix(0.07469135802469135,0,0,0.07469135802469135,31.370370370370367,0)" xlink:href="#ak"/><use transform="matrix(0.07469135802469135,0,0,0.07469135802469135,44.81481481481481,0)" xlink:href="#U"/><use transform="matrix(0.07469135802469135,0,0,0.07469135802469135,59.753086419753075,0)" xlink:href="#an"/><use transform="matrix(0.07469135802469135,0,0,0.07469135802469135,74.69135802469134,0)" xlink:href="#Q"/><use transform="matrix(0.07469135802469135,0,0,0.07469135802469135,89.62962962962959,0)" xlink:href="#ag"/></g><path d="M106-169C34-169 62-67 57 0H25v-261h32l-1 103c12-21 28-36 61-36 89 0 53 116 60 194h-32v-121c2-32-8-49-39-48" id="ao"/><g id="o"><use transform="matrix(0.07469135802469135,0,0,0.07469135802469135,0,0)" xlink:href="#N"/><use transform="matrix(0.07469135802469135,0,0,0.07469135802469135,17.925925925925924,0)" xlink:href="#X"/><use transform="matrix(0.07469135802469135,0,0,0.07469135802469135,32.86419753086419,0)" xlink:href="#ai"/><use transform="matrix(0.07469135802469135,0,0,0.07469135802469135,47.802469135802454,0)" xlink:href="#aa"/><use transform="matrix(0.07469135802469135,0,0,0.07469135802469135,56.69074074074072,0)" xlink:href="#ak"/><use transform="matrix(0.07469135802469135,0,0,0.07469135802469135,70.13518518518516,0)" xlink:href="#ao"/></g><path d="M179-190L93 31C79 59 56 82 12 73V49c39 6 53-20 64-50L1-190h34L92-34l54-156h33" id="ap"/><g id="p"><use transform="matrix(0.07469135802469135,0,0,0.07469135802469135,0,0)" xlink:href="#am"/><use transform="matrix(0.07469135802469135,0,0,0.07469135802469135,17.925925925925924,0)" xlink:href="#Q"/><use transform="matrix(0.07469135802469135,0,0,0.07469135802469135,32.86419753086419,0)" xlink:href="#ap"/></g><path d="M212-179c-10-28-35-45-73-45-59 0-87 40-87 99 0 60 29 101 89 101 43 0 62-24 78-52l27 14C228-24 195 4 139 4 59 4 22-46 18-125c-6-104 99-153 187-111 19 9 31 26 39 46" id="aq"/><g id="q"><use transform="matrix(0.07469135802469135,0,0,0.07469135802469135,0,0)" xlink:href="#aq"/><use transform="matrix(0.07469135802469135,0,0,0.07469135802469135,19.34506172839506,0)" xlink:href="#U"/><use transform="matrix(0.07469135802469135,0,0,0.07469135802469135,34.28333333333333,0)" xlink:href="#Q"/><use transform="matrix(0.07469135802469135,0,0,0.07469135802469135,49.2216049382716,0)" xlink:href="#ag"/><use transform="matrix(0.07469135802469135,0,0,0.07469135802469135,56.69074074074073,0)" xlink:href="#X"/><use transform="matrix(0.07469135802469135,0,0,0.07469135802469135,71.629012345679,0)" xlink:href="#Q"/><use transform="matrix(0.07469135802469135,0,0,0.07469135802469135,86.56728395061727,0)" xlink:href="#ag"/></g><path fill="#333" d="M232-93c-1 65-40 97-104 97C67 4 28-28 28-90v-158h33c8 89-33 224 67 224 102 0 64-133 71-224h33v155" id="ar"/><path fill="#333" d="M135-143c-3-34-86-38-87 0 15 53 115 12 119 90S17 21 10-45l28-5c4 36 97 45 98 0-10-56-113-15-118-90-4-57 82-63 122-42 12 7 21 19 24 35" id="as"/><g id="r"><use transform="matrix(0.06172839506172839,0,0,0.06172839506172839,0,0)" xlink:href="#ar"/><use transform="matrix(0.06172839506172839,0,0,0.06172839506172839,15.987654320987653,0)" xlink:href="#as"/><use transform="matrix(0.06172839506172839,0,0,0.06172839506172839,27.098765432098766,0)" xlink:href="#E"/><use transform="matrix(0.06172839506172839,0,0,0.06172839506172839,39.44444444444444,0)" xlink:href="#G"/></g><path fill="#333" d="M205 0l-28-72H64L36 0H1l101-248h38L239 0h-34zm-38-99l-47-123c-12 45-31 82-46 123h93" id="at"/><path fill="#333" d="M85-194c31 0 48 13 60 33l-1-100h32l1 261h-30c-2-10 0-23-3-31C134-8 116 4 85 4 32 4 16-35 15-94c0-66 23-100 70-100zm9 24c-40 0-46 34-46 75 0 40 6 74 45 74 42 0 51-32 51-76 0-42-9-74-50-73" id="au"/><path fill="#333" d="M210-169c-67 3-38 105-44 169h-31v-121c0-29-5-50-35-48C34-165 62-65 56 0H25l-1-190h30c1 10-1 24 2 32 10-44 99-50 107 0 11-21 27-35 58-36 85-2 47 119 55 194h-31v-121c0-29-5-49-35-48" id="av"/><g id="s"><use transform="matrix(0.06172839506172839,0,0,0.06172839506172839,0,0)" xlink:href="#at"/><use transform="matrix(0.06172839506172839,0,0,0.06172839506172839,14.814814814814813,0)" xlink:href="#au"/><use transform="matrix(0.06172839506172839,0,0,0.06172839506172839,27.160493827160494,0)" xlink:href="#av"/><use transform="matrix(0.06172839506172839,0,0,0.06172839506172839,45.61728395061728,0)" xlink:href="#M"/><use transform="matrix(0.06172839506172839,0,0,0.06172839506172839,50.49382716049382,0)" xlink:href="#K"/></g><path d="M30-248c118-7 216 8 213 122C240-48 200 0 122 0H30v-248zM63-27c89 8 146-16 146-99s-60-101-146-95v194" id="aw"/><path d="M115-194c53 0 69 39 70 98 0 66-23 100-70 100C84 3 66-7 56-30L54 0H23l1-261h32v101c10-23 28-34 59-34zm-8 174c40 0 45-34 45-75 0-40-5-75-45-74-42 0-51 32-51 76 0 43 10 73 51 73" id="ax"/><g id="t"><use transform="matrix(0.07469135802469135,0,0,0.07469135802469135,0,0)" xlink:href="#aw"/><use transform="matrix(0.07469135802469135,0,0,0.07469135802469135,19.34506172839506,0)" xlink:href="#ai"/><use transform="matrix(0.07469135802469135,0,0,0.07469135802469135,34.28333333333333,0)" xlink:href="#Z"/><use transform="matrix(0.07469135802469135,0,0,0.07469135802469135,47.72777777777778,0)" xlink:href="#ao"/><use transform="matrix(0.07469135802469135,0,0,0.07469135802469135,62.66604938271604,0)" xlink:href="#ax"/><use transform="matrix(0.07469135802469135,0,0,0.07469135802469135,77.6043209876543,0)" xlink:href="#U"/><use transform="matrix(0.07469135802469135,0,0,0.07469135802469135,92.54259259259258,0)" xlink:href="#ai"/><use transform="matrix(0.07469135802469135,0,0,0.07469135802469135,107.48086419753083,0)" xlink:href="#aa"/><use transform="matrix(0.07469135802469135,0,0,0.07469135802469135,116.3691358024691,0)" xlink:href="#af"/></g><path d="M240 0l2-218c-23 76-54 145-80 218h-23L58-218 59 0H30v-248h44l77 211c21-75 51-140 76-211h43V0h-30" id="ay"/><path d="M143 0L79-87 56-68V0H24v-261h32v163l83-92h37l-77 82L181 0h-38" id="az"/><g id="u"><use transform="matrix(0.07469135802469135,0,0,0.07469135802469135,0,0)" xlink:href="#ay"/><use transform="matrix(0.07469135802469135,0,0,0.07469135802469135,22.33271604938271,0)" xlink:href="#ai"/><use transform="matrix(0.07469135802469135,0,0,0.07469135802469135,37.270987654320976,0)" xlink:href="#az"/><use transform="matrix(0.07469135802469135,0,0,0.07469135802469135,50.71543209876541,0)" xlink:href="#X"/></g><g id="v"><use transform="matrix(0.07469135802469135,0,0,0.07469135802469135,0,0)" xlink:href="#aq"/><use transform="matrix(0.07469135802469135,0,0,0.07469135802469135,19.34506172839506,0)" xlink:href="#ad"/><use transform="matrix(0.07469135802469135,0,0,0.07469135802469135,25.245679012345676,0)" xlink:href="#an"/><use transform="matrix(0.07469135802469135,0,0,0.07469135802469135,40.18395061728394,0)" xlink:href="#Z"/><use transform="matrix(0.07469135802469135,0,0,0.07469135802469135,53.62839506172838,0)" xlink:href="#ag"/><use transform="matrix(0.07469135802469135,0,0,0.07469135802469135,61.09753086419751,0)" xlink:href="#X"/><use transform="matrix(0.07469135802469135,0,0,0.07469135802469135,76.03580246913579,0)" xlink:href="#aa"/><use transform="matrix(0.07469135802469135,0,0,0.07469135802469135,84.92407407407406,0)" xlink:href="#Z"/></g><g id="w"><use transform="matrix(0.07469135802469135,0,0,0.07469135802469135,0,0)" xlink:href="#N"/><use transform="matrix(0.07469135802469135,0,0,0.07469135802469135,17.925925925925924,0)" xlink:href="#ai"/><use transform="matrix(0.07469135802469135,0,0,0.07469135802469135,32.86419753086419,0)" xlink:href="#al"/><use transform="matrix(0.07469135802469135,0,0,0.07469135802469135,46.30864197530863,0)" xlink:href="#X"/><use transform="matrix(0.07469135802469135,0,0,0.07469135802469135,61.2469135802469,0)" xlink:href="#af"/></g><g id="x"><use transform="matrix(0.07469135802469135,0,0,0.07469135802469135,0,0)" xlink:href="#am"/><use transform="matrix(0.07469135802469135,0,0,0.07469135802469135,17.925925925925924,0)" xlink:href="#Q"/><use transform="matrix(0.07469135802469135,0,0,0.07469135802469135,32.86419753086419,0)" xlink:href="#ap"/></g><g id="y"><use transform="matrix(0.07469135802469135,0,0,0.07469135802469135,0,0)" xlink:href="#aq"/><use transform="matrix(0.07469135802469135,0,0,0.07469135802469135,19.34506172839506,0)" xlink:href="#U"/><use transform="matrix(0.07469135802469135,0,0,0.07469135802469135,34.28333333333333,0)" xlink:href="#Q"/><use transform="matrix(0.07469135802469135,0,0,0.07469135802469135,49.2216049382716,0)" xlink:href="#ag"/><use transform="matrix(0.07469135802469135,0,0,0.07469135802469135,56.69074074074073,0)" xlink:href="#X"/><use transform="matrix(0.07469135802469135,0,0,0.07469135802469135,71.629012345679,0)" xlink:href="#Q"/><use transform="matrix(0.07469135802469135,0,0,0.07469135802469135,86.56728395061727,0)" xlink:href="#ag"/></g><path d="M266 0h-40l-56-210L115 0H75L2-248h35L96-30l15-64 43-154h32l59 218 59-218h35" id="aA"/><g id="z"><use transform="matrix(0.07469135802469135,0,0,0.07469135802469135,0,0)" xlink:href="#aA"/><use transform="matrix(0.07469135802469135,0,0,0.07469135802469135,25.320370370370366,0)" xlink:href="#O"/><use transform="matrix(0.07469135802469135,0,0,0.07469135802469135,31.220987654320982,0)" xlink:href="#ag"/><use transform="matrix(0.07469135802469135,0,0,0.07469135802469135,38.69012345679012,0)" xlink:href="#ao"/><use transform="matrix(0.07469135802469135,0,0,0.07469135802469135,53.62839506172838,0)" xlink:href="#O"/><use transform="matrix(0.07469135802469135,0,0,0.07469135802469135,59.529012345679,0)" xlink:href="#Q"/></g><g id="A"><use transform="matrix(0.07469135802469135,0,0,0.07469135802469135,0,0)" xlink:href="#N"/><use transform="matrix(0.07469135802469135,0,0,0.07469135802469135,17.925925925925924,0)" xlink:href="#ai"/><use transform="matrix(0.07469135802469135,0,0,0.07469135802469135,32.86419753086419,0)" xlink:href="#al"/><use transform="matrix(0.07469135802469135,0,0,0.07469135802469135,46.30864197530863,0)" xlink:href="#X"/><use transform="matrix(0.07469135802469135,0,0,0.07469135802469135,61.2469135802469,0)" xlink:href="#af"/></g><g id="B"><use transform="matrix(0.07469135802469135,0,0,0.07469135802469135,0,0)" xlink:href="#ay"/><use transform="matrix(0.07469135802469135,0,0,0.07469135802469135,22.33271604938271,0)" xlink:href="#ai"/><use transform="matrix(0.07469135802469135,0,0,0.07469135802469135,37.270987654320976,0)" xlink:href="#Q"/><use transform="matrix(0.07469135802469135,0,0,0.07469135802469135,52.20925925925924,0)" xlink:href="#ai"/><use transform="matrix(0.07469135802469135,0,0,0.07469135802469135,67.1475308641975,0)" xlink:href="#P"/><use transform="matrix(0.07469135802469135,0,0,0.07469135802469135,82.08580246913577,0)" xlink:href="#X"/></g><g id="C"><use transform="matrix(0.07469135802469135,0,0,0.07469135802469135,0,0)" xlink:href="#am"/><use transform="matrix(0.07469135802469135,0,0,0.07469135802469135,17.925925925925924,0)" xlink:href="#ak"/><use transform="matrix(0.07469135802469135,0,0,0.07469135802469135,31.370370370370367,0)" xlink:href="#ak"/><use transform="matrix(0.07469135802469135,0,0,0.07469135802469135,44.81481481481481,0)" xlink:href="#U"/><use transform="matrix(0.07469135802469135,0,0,0.07469135802469135,59.753086419753075,0)" xlink:href="#an"/><use transform="matrix(0.07469135802469135,0,0,0.07469135802469135,74.69135802469134,0)" xlink:href="#Q"/><use transform="matrix(0.07469135802469135,0,0,0.07469135802469135,89.62962962962959,0)" xlink:href="#ag"/><use transform="matrix(0.07469135802469135,0,0,0.07469135802469135,97.09876543209874,0)" xlink:href="#Z"/></g></defs></g></svg>